<?xml version="1.0" encoding="UTF-8"?>
<svg version="1.1" xmlns="http://www.w3.org/2000/svg" width="512" height="512">
<path d="M0 0 C1.45114691 -0.00302415 2.90229222 -0.00691496 4.35343474 -0.01159257 C8.32331491 -0.02184741 12.29310451 -0.01969717 16.26299202 -0.01541197 C20.55145683 -0.01294016 24.83990008 -0.02196459 29.12835693 -0.02944946 C37.5232926 -0.04218607 45.91819626 -0.04399143 54.31313995 -0.0416492 C61.13872257 -0.03986463 67.96429548 -0.04161866 74.78987694 -0.04587364 C76.24824155 -0.04676643 76.24824155 -0.04676643 77.73606807 -0.04767724 C79.71132949 -0.04888903 81.68659091 -0.05010316 83.66185232 -0.05131962 C102.1781092 -0.06219128 120.69434786 -0.06003451 139.21060576 -0.05393478 C156.13778258 -0.04876661 173.06490183 -0.06001908 189.99206726 -0.07903299 C207.38556644 -0.09842048 224.77903841 -0.10666575 242.17254847 -0.10290974 C251.93256473 -0.100999 261.69253201 -0.10347288 271.45253944 -0.11762428 C279.76190109 -0.12955069 288.07118361 -0.13092888 296.38054637 -0.11883412 C300.61697943 -0.11295413 304.85326782 -0.11182154 309.08969116 -0.12383652 C312.97409009 -0.13472473 316.85822409 -0.13155731 320.74261077 -0.11757483 C322.14160376 -0.11493595 323.54061771 -0.11726883 324.93959007 -0.1253107 C339.67614917 -0.2040869 351.82703177 2.15900595 362.92424011 12.36616516 C374.09401961 24.18437755 375.94238853 36.92651869 375.89587402 52.6255188 C375.89889818 54.07666571 375.90278898 55.52781102 375.90746659 56.97895354 C375.91772143 60.94883371 375.9155712 64.91862331 375.911286 68.88851082 C375.90881418 73.17697562 375.91783862 77.46541888 375.92532349 81.75387573 C375.9380601 90.14881139 375.93986545 98.54371505 375.93752322 106.93865875 C375.93573865 113.76424137 375.93749269 120.58981428 375.94174767 127.41539574 C375.94234285 128.38763881 375.94293804 129.35988188 375.94355127 130.36158687 C375.94476305 132.33684829 375.94597718 134.3121097 375.94719364 136.28737112 C375.9580653 154.803628 375.95590853 173.31986666 375.9498088 191.83612456 C375.94464064 208.76330138 375.9558931 225.69042063 375.97490702 242.61758605 C375.99429451 260.01108524 376.00253978 277.40455721 375.99878377 294.79806727 C375.99687302 304.55808353 375.9993469 314.31805081 376.01349831 324.07805824 C376.02542471 332.38741989 376.0268029 340.6967024 376.01470814 349.00606517 C376.00882816 353.24249822 376.00769556 357.47878662 376.01971054 361.71520996 C376.03059876 365.59960889 376.02743134 369.48374289 376.01344886 373.36812957 C376.01080997 374.76712256 376.01314286 376.16613651 376.02118472 377.56510887 C376.09996093 392.30166797 373.73686807 404.45255057 363.52970886 415.54975891 C351.71149647 426.71953841 338.96935533 428.56790733 323.27035522 428.52139282 C321.81920832 428.52441697 320.368063 428.52830778 318.91692048 428.53298539 C314.94704031 428.54324023 310.97725071 428.54109 307.0073632 428.5368048 C302.7188984 428.53433298 298.43045515 428.54335742 294.14199829 428.55084229 C285.74706263 428.5635789 277.35215897 428.56538425 268.95721527 428.56304202 C262.13163266 428.56125745 255.30605974 428.56301149 248.48047829 428.56726646 C247.02211368 428.56815925 247.02211368 428.56815925 245.53428716 428.56907007 C243.55902574 428.57028185 241.58376432 428.57149598 239.6085029 428.57271244 C221.09224602 428.5835841 202.57600736 428.58142733 184.05974946 428.5753276 C167.13257265 428.57015943 150.2054534 428.5814119 133.27828797 428.60042582 C115.88478878 428.6198133 98.49131681 428.62805858 81.09780675 428.62430257 C71.33779049 428.62239182 61.57782321 428.6248657 51.81781578 428.63901711 C43.50845413 428.65094351 35.19917162 428.6523217 26.88980886 428.64022694 C22.6533758 428.63434695 18.4170874 428.63321436 14.18066406 428.64522934 C10.29626514 428.65611755 6.41213114 428.65295014 2.52774445 428.63896766 C1.12875146 428.63632877 -0.27026249 428.63866165 -1.66923485 428.64670352 C-16.40579394 428.72547972 -28.55667654 426.36238687 -39.65388489 416.15522766 C-50.82366438 404.33701527 -52.67203331 391.59487413 -52.6255188 375.89587402 C-52.62854295 374.44472712 -52.63243375 372.9935818 -52.63711137 371.54243928 C-52.64736621 367.57255911 -52.64521597 363.60276951 -52.64093077 359.632882 C-52.63845896 355.3444172 -52.64748339 351.05597395 -52.65496826 346.76751709 C-52.66770487 338.37258143 -52.66951023 329.97767777 -52.667168 321.58273407 C-52.66538343 314.75715146 -52.66713746 307.93157854 -52.67139244 301.10599709 C-52.67198763 300.13375401 -52.67258282 299.16151094 -52.67319604 298.15980596 C-52.67440782 296.18454454 -52.67562196 294.20928312 -52.67683842 292.2340217 C-52.68771007 273.71776482 -52.68555331 255.20152616 -52.67945357 236.68526826 C-52.67428541 219.75809145 -52.68553788 202.8309722 -52.70455179 185.90380677 C-52.72393928 168.51030758 -52.73218455 151.11683561 -52.72842854 133.72332555 C-52.7265178 123.96330929 -52.72899167 114.20334201 -52.74314308 104.44333458 C-52.75506949 96.13397293 -52.75644768 87.82469042 -52.74435291 79.51532765 C-52.73847293 75.2788946 -52.73734034 71.0426062 -52.74935532 66.80618286 C-52.76024353 62.92178394 -52.75707611 59.03764994 -52.74309363 55.15326325 C-52.74045475 53.75427026 -52.74278763 52.35525631 -52.7508295 50.95628395 C-52.8296057 36.21972486 -50.46651285 24.06884226 -40.25935364 12.97163391 C-28.44114125 1.80185441 -15.69900011 -0.04651451 0 0 Z " fill="#FEFEFE" transform="translate(94.36482238769531,41.73930358886719)"/>
<path d="M0 0 C6.4953612 3.03956377 11.4230085 7.99888537 16.40380859 13.03149414 C17.20155701 13.82559189 17.99930542 14.61968964 18.82122803 15.43785095 C21.43773277 18.04629532 24.0432881 20.66537468 26.6484375 23.28515625 C28.47016135 25.10739907 30.29240438 26.92912299 32.11514282 28.75035095 C35.9241193 32.55941694 39.7280595 36.37340519 43.52783203 40.19165039 C47.91705064 44.60208512 52.31508793 49.00357064 56.71803796 53.40029436 C60.9643557 57.64091544 65.20491887 61.88723325 69.44282913 66.13625908 C71.24286064 67.94014186 73.04424513 69.74267559 74.84699631 71.54384041 C77.36049002 74.056964 79.867397 76.57647463 82.37255859 79.09790039 C83.11956024 79.84242462 83.86656189 80.58694885 84.63619995 81.35403442 C85.31734863 82.04226791 85.99849731 82.7305014 86.70028687 83.43959045 C87.58897996 84.33136285 87.58897996 84.33136285 88.49562645 85.24115086 C91.23074465 88.43893395 92.29046388 91.18813798 92.3125 95.375 C92.32925781 96.10460937 92.34601563 96.83421875 92.36328125 97.5859375 C91.27236782 104.83523321 86.09197549 109.33602713 81.13549805 114.25268555 C80.33515137 115.05828918 79.53480469 115.86389282 78.71020508 116.69390869 C76.06819619 119.34909815 73.41539158 121.99319028 70.76171875 124.63671875 C68.91906047 126.4813983 67.0768477 128.32652296 65.23506165 130.17207336 C61.37603479 134.03654967 57.51074521 137.89467703 53.6418457 141.74926758 C49.17653958 146.19824875 44.72214343 150.65793399 40.27325982 155.12333268 C35.98350966 159.42836534 31.68533699 163.7248846 27.38355446 168.01789284 C25.55811167 169.84133543 23.73489189 171.6670063 21.91394615 173.4949398 C19.36738468 176.04912589 16.81139306 178.59348735 14.25268555 181.13549805 C13.50285904 181.89139725 12.75303253 182.64729645 11.98048401 183.42610168 C7.1059608 188.24190833 3.1358927 191.59536868 -3.875 192.5 C-8.78359191 192.27431761 -12.41150914 190.28680358 -16 187 C-19.4650151 182.34753591 -20.84479853 177.80798991 -20 172 C-17.2244139 166.36350554 -13.76087343 162.34294155 -9.30371094 157.96313477 C-8.63988403 157.29886978 -7.97605713 156.6346048 -7.29211426 155.95021057 C-5.11324169 153.77341498 -2.92396392 151.6074176 -0.734375 149.44140625 C0.78513984 147.92749122 2.30399028 146.41290906 3.82220459 144.89768982 C7.8071571 140.92415563 11.80103826 136.95971604 15.796875 132.99713135 C19.87784906 128.94692299 23.95027455 124.88813909 28.0234375 120.83007812 C36.00730277 112.87832387 44.00063117 104.93615556 52 97 C50.72617955 94.20756922 49.41635162 92.17040291 47.23609924 90.01577759 C46.67393707 89.45520157 46.1117749 88.89462555 45.53257751 88.31706238 C44.91798172 87.71437027 44.30338593 87.11167816 43.67016602 86.49072266 C43.02120361 85.84628708 42.37224121 85.2018515 41.70361328 84.53788757 C40.29528678 83.14051111 38.88469328 81.74541655 37.47210884 80.35234451 C35.23551349 78.14591783 33.00566587 75.93287493 30.77757263 73.71786499 C24.44179989 67.42183847 18.09345853 61.13853921 11.74194336 54.85839844 C7.85596003 51.01516487 3.97734051 47.16462115 0.10294914 43.30970383 C-1.37371335 41.84359924 -2.85328289 40.38041656 -4.33581352 38.92024612 C-6.41099558 36.87631094 -8.4767624 34.82327501 -10.54077148 32.76806641 C-11.15334305 32.16942276 -11.76591461 31.57077911 -12.39704895 30.95399475 C-16.85950737 26.48179228 -19.66902307 22.56507119 -20.5 16.125 C-20.28356975 11.2129744 -18.19605815 7.64802597 -15 4 C-10.66744104 0.25633255 -5.63351118 -1.23791238 0 0 Z " fill="#2779d7" transform="translate(308,160)"/>
<path d="M0 0 C4.49148545 2.48167678 6.98912638 5.75936355 8.875 10.5 C9.72541875 14.09685306 9.58425965 17.03881293 7.95639515 20.39247131 C4.8406613 25.36580128 1.33620336 29.45344783 -2.84301758 33.55859375 C-3.82434662 34.54057991 -3.82434662 34.54057991 -4.82550049 35.54240417 C-6.96646968 37.68130135 -9.11782951 39.80940472 -11.26953125 41.9375 C-12.76519747 43.42756464 -14.260198 44.91829773 -15.75456238 46.40966797 C-19.6720903 50.31579152 -23.59854595 54.21281785 -27.52697754 58.10797119 C-31.54103129 62.09122892 -35.5465097 66.08308962 -39.55273438 70.07421875 C-47.40182241 77.89122044 -55.26037608 85.6986312 -63.125 93.5 C-61.85117955 96.29243078 -60.54135162 98.32959709 -58.36109924 100.48422241 C-57.79893707 101.04479843 -57.2367749 101.60537445 -56.65757751 102.18293762 C-56.04298172 102.78562973 -55.42838593 103.38832184 -54.79516602 104.00927734 C-54.14620361 104.65371292 -53.49724121 105.2981485 -52.82861328 105.96211243 C-51.42028678 107.35948889 -50.00969328 108.75458345 -48.59710884 110.14765549 C-46.36051349 112.35408217 -44.13066587 114.56712507 -41.90257263 116.78213501 C-35.56679989 123.07816153 -29.21845853 129.36146079 -22.86694336 135.64160156 C-18.98096003 139.48483513 -15.10234051 143.33537885 -11.22794914 147.19029617 C-9.75128665 148.65640076 -8.27171711 150.11958344 -6.78918648 151.57975388 C-4.71400442 153.62368906 -2.6482376 155.67672499 -0.58422852 157.73193359 C0.02834305 158.33057724 0.64091461 158.92922089 1.27204895 159.54600525 C5.5374862 163.82075635 8.5124699 167.70333923 9.3125 173.875 C8.57653164 179.97302351 6.64647636 184.09004943 1.8125 187.9375 C-2.72808158 190.35270297 -5.99691305 190.92734058 -11.125 190.5 C-17.33778148 187.55682532 -21.69368396 183.36434463 -26.50708008 178.52197266 C-27.31443604 177.72147995 -28.12179199 176.92098724 -28.95361328 176.09623718 C-31.60829207 173.45979417 -34.25180435 170.81248195 -36.89453125 168.1640625 C-38.74025004 166.32290593 -40.58634015 164.48212151 -42.43278503 162.64169312 C-46.29566045 158.78882626 -50.15186006 154.92936753 -54.00463867 151.06640625 C-58.45267841 146.60687043 -62.91337762 142.16029465 -67.38053018 137.71991122 C-71.68821626 133.4370703 -75.9846544 129.14311994 -80.2767086 124.84461594 C-82.1000947 123.02107642 -83.92659123 121.20064159 -85.75623512 119.38338089 C-88.31048484 116.84399481 -90.85167145 114.29221017 -93.38989258 111.73681641 C-94.14781601 110.98856094 -94.90573944 110.24030548 -95.68663025 109.46937561 C-100.51803305 104.5692143 -102.81220577 101.00329538 -103.4375 94 C-102.72947202 86.07008666 -97.6335812 81.57723168 -92.26049805 76.24731445 C-91.46015137 75.44171082 -90.65980469 74.63610718 -89.83520508 73.80609131 C-87.19319619 71.15090185 -84.54039158 68.50680972 -81.88671875 65.86328125 C-80.04406047 64.0186017 -78.2018477 62.17347704 -76.36006165 60.32792664 C-72.50103479 56.46345033 -68.63574521 52.60532297 -64.7668457 48.75073242 C-60.30153958 44.30175125 -55.84714343 39.84206601 -51.39825982 35.37666732 C-47.10850966 31.07163466 -42.81033699 26.7751154 -38.50855446 22.48210716 C-36.68311167 20.65866457 -34.85989189 18.8329937 -33.03894615 17.0050602 C-30.49238468 14.45087411 -27.93639306 11.90651265 -25.37768555 9.36450195 C-24.62785904 8.60860275 -23.87803253 7.85270355 -23.10548401 7.07389832 C-16.22113678 0.27247719 -9.75213426 -4.12449287 0 0 Z " fill="#4579B3" transform="translate(215.125,161.5)"/>
</svg>
