<?xml version="1.0" encoding="UTF-8"?>
<!DOCTYPE svg PUBLIC "-//W3C//DTD SVG 1.1//EN" "http://www.w3.org/Graphics/SVG/1.1/DTD/svg11.dtd">
<svg xmlns="http://www.w3.org/2000/svg" version="1.1" width="97px" height="96px" style="shape-rendering:geometricPrecision; text-rendering:geometricPrecision; image-rendering:optimizeQuality; fill-rule:evenodd; clip-rule:evenodd" xmlns:xlink="http://www.w3.org/1999/xlink">
<g><path style="opacity:0.971" fill="#61c5ff" d="M 96.5,26.5 C 96.5,28.8333 96.5,31.1667 96.5,33.5C 80.8714,41.2682 64.8714,48.2682 48.5,54.5C 33.3171,48.492 18.3171,41.992 3.5,35C 0.209091,32.668 -0.290909,29.8347 2,26.5C 16.2608,18.2853 30.7608,10.4519 45.5,3C 51.6926,2.58063 57.3593,4.2473 62.5,8C 74.0203,13.9249 85.3536,20.0916 96.5,26.5 Z"/></g>
<g><path style="opacity:0.873" fill="#61c5ff" d="M 96.5,45.5 C 96.5,47.8333 96.5,50.1667 96.5,52.5C 81.105,60.4466 65.2716,67.4466 49,73.5C 33.5728,67.7056 18.4062,61.2056 3.5,54C 0.903472,51.6833 0.0701388,48.85 1,45.5C 16.8653,53.0989 32.8653,60.4322 49,67.5C 65.0394,60.5629 80.8728,53.2296 96.5,45.5 Z"/></g>
<g><path style="opacity:0.873" fill="#61c5ff" d="M 96.5,64.5 C 96.5,66.8333 96.5,69.1667 96.5,71.5C 81.1541,79.5614 65.3208,86.5614 49,92.5C 33.208,86.7887 17.708,80.2887 2.5,73C 0.839945,70.3669 0.339945,67.5335 1,64.5C 16.6945,72.121 32.5279,79.4543 48.5,86.5C 64.7599,79.7029 80.7599,72.3696 96.5,64.5 Z"/></g>
</svg>
