<?xml version="1.0" encoding="UTF-8"?>
<!DOCTYPE svg PUBLIC "-//W3C//DTD SVG 1.1//EN" "http://www.w3.org/Graphics/SVG/1.1/DTD/svg11.dtd">
<svg xmlns="http://www.w3.org/2000/svg" version="1.1" width="96px" height="96px" style="shape-rendering:geometricPrecision; text-rendering:geometricPrecision; image-rendering:optimizeQuality; fill-rule:evenodd; clip-rule:evenodd" xmlns:xlink="http://www.w3.org/1999/xlink">
<g><path style="opacity:0.962" fill="#006fcf" d="M 95.5,27.5 C 95.5,29.1667 95.5,30.8333 95.5,32.5C 92.2266,35.1442 88.5599,37.3109 84.5,39C 72.3467,44.6603 60.0134,49.8269 47.5,54.5C 34.2897,49.5634 21.2897,44.0634 8.5,38C 5.10194,36.6429 2.10194,34.8096 -0.5,32.5C -0.5,30.8333 -0.5,29.1667 -0.5,27.5C 0.267389,26.828 0.934056,25.9947 1.5,25C 13.5,18.6667 25.5,12.3333 37.5,6C 43.3242,1.85321 49.3242,1.51987 55.5,5C 67.25,11.7362 79.25,18.0695 91.5,24C 93.0267,25.0319 94.36,26.1986 95.5,27.5 Z"/></g>
<g><path style="opacity:0.837" fill="#006fcf" d="M -0.5,45.5 C 15.3918,53.0217 31.3918,60.3551 47.5,67.5C 63.5211,60.1552 79.5211,52.8219 95.5,45.5C 95.5,47.5 95.5,49.5 95.5,51.5C 94.6836,53.1436 93.3502,54.3103 91.5,55C 77.0137,61.6601 62.347,67.8268 47.5,73.5C 32.0673,67.2981 16.734,60.7981 1.5,54C 0.934056,53.0053 0.267389,52.172 -0.5,51.5C -0.5,49.5 -0.5,47.5 -0.5,45.5 Z"/></g>
<g><path style="opacity:0.836" fill="#006fcf" d="M -0.5,64.5 C 15.2401,72.3696 31.2401,79.7029 47.5,86.5C 63.7599,79.7029 79.7599,72.3696 95.5,64.5C 95.5,66.5 95.5,68.5 95.5,70.5C 93.4603,73.0376 90.7936,74.871 87.5,76C 75.5,81.3333 63.5,86.6667 51.5,92C 48.8333,92.6667 46.1667,92.6667 43.5,92C 30.8333,86.3333 18.1667,80.6667 5.5,75C 2.85408,74.1959 0.854084,72.6959 -0.5,70.5C -0.5,68.5 -0.5,66.5 -0.5,64.5 Z"/></g>
</svg>
