<?xml version="1.0" encoding="UTF-8"?>
<!DOCTYPE svg PUBLIC "-//W3C//DTD SVG 1.1//EN" "http://www.w3.org/Graphics/SVG/1.1/DTD/svg11.dtd">
<svg xmlns="http://www.w3.org/2000/svg" version="1.1" width="192px" height="192px" style="shape-rendering:geometricPrecision; text-rendering:geometricPrecision; image-rendering:optimizeQuality; fill-rule:evenodd; clip-rule:evenodd" xmlns:xlink="http://www.w3.org/1999/xlink">
<g><path style="opacity:0.921" fill="#006fcf" d="M 191.5,59.5 C 191.5,60.1667 191.5,60.8333 191.5,61.5C 190.775,64.7688 189.108,67.6022 186.5,70C 156.385,83.7255 126.052,96.8922 95.5,109.5C 64.9484,96.8922 34.6151,83.7255 4.5,70C 2.17434,68.1951 0.507671,66.0284 -0.5,63.5C -0.5,61.8333 -0.5,60.1667 -0.5,58.5C 0.51027,55.6699 2.17694,53.1699 4.5,51C 33.1667,36 61.8333,21 90.5,6C 94.9255,5.20935 99.2589,5.54268 103.5,7C 131.008,21.9214 158.675,36.588 186.5,51C 189.108,53.3978 190.775,56.2312 191.5,59.5 Z M 94.5,16.5 C 122.132,30.6489 149.466,45.3156 176.5,60.5C 149.667,72.2224 122.667,83.5558 95.5,94.5C 68.3332,83.5558 41.3332,72.2224 14.5,60.5C 41.2287,45.8053 67.8954,31.1386 94.5,16.5 Z"/></g>
<g><path style="opacity:0.912" fill="#006fcf" d="M -0.5,92.5 C 31.4783,107.155 63.4783,121.822 95.5,136.5C 127.522,121.822 159.522,107.155 191.5,92.5C 191.5,95.1667 191.5,97.8333 191.5,100.5C 189.3,106.522 184.967,110.356 178.5,112C 153.167,123.333 127.833,134.667 102.5,146C 97.8333,148 93.1667,148 88.5,146C 60.5,133.333 32.5,120.667 4.5,108C 2.17694,105.83 0.51027,103.33 -0.5,100.5C -0.5,97.8333 -0.5,95.1667 -0.5,92.5 Z"/></g>
<g><path style="opacity:0.911" fill="#006fcf" d="M -0.5,130.5 C 31.2401,145.703 63.2401,160.37 95.5,174.5C 127.755,160.372 159.755,145.705 191.5,130.5C 191.5,133.167 191.5,135.833 191.5,138.5C 190.379,140.741 189.213,143.075 188,145.5C 159.908,158.462 131.742,171.295 103.5,184C 98.1667,186 92.8333,186 87.5,184C 59.2585,171.295 31.0918,158.462 3,145.5C 1.38383,143.287 0.217161,140.953 -0.5,138.5C -0.5,135.833 -0.5,133.167 -0.5,130.5 Z"/></g>
</svg>
