<?xml version="1.0" encoding="UTF-8"?>
<!DOCTYPE svg PUBLIC "-//W3C//DTD SVG 1.1//EN" "http://www.w3.org/Graphics/SVG/1.1/DTD/svg11.dtd">
<svg xmlns="http://www.w3.org/2000/svg" version="1.1" width="512px" height="512px" style="shape-rendering:geometricPrecision; text-rendering:geometricPrecision; image-rendering:optimizeQuality; fill-rule:evenodd; clip-rule:evenodd" xmlns:xlink="http://www.w3.org/1999/xlink">
<g><path style="opacity:0.984" fill="#000000" d="M 511.5,239.5 C 511.5,254.5 511.5,269.5 511.5,284.5C 500.545,369.608 458.545,434.441 385.5,479C 368.324,488.556 350.324,496.056 331.5,501.5C 324.333,501.675 319.833,498.341 318,491.5C 317.202,468.318 317.369,445.151 318.5,422C 318.589,408.02 315.422,394.853 309,382.5C 306.537,379.035 303.704,375.869 300.5,373C 386.384,364.101 424.884,316.601 416,230.5C 414.473,222.586 412.14,214.92 409,207.5C 404.115,197.802 398.282,188.802 391.5,180.5C 398.554,158.57 397.721,136.904 389,115.5C 377.432,114.21 366.265,116.043 355.5,121C 342.736,127.131 330.236,133.631 318,140.5C 276.002,129.833 234.002,129.833 192,140.5C 179.764,133.631 167.264,127.131 154.5,121C 143.958,116.291 132.958,114.291 121.5,115C 112.313,136.454 111.313,158.288 118.5,180.5C 111.379,189.814 105.212,199.814 100,210.5C 89.9002,242.315 90.5669,273.982 102,305.5C 116.739,338.641 141.905,359.141 177.5,367C 188.128,369.216 198.795,371.216 209.5,373C 199.983,382.536 194.649,394.036 193.5,407.5C 158.829,421.667 132.329,412.667 114,380.5C 104.898,368.88 93.0646,362.213 78.5,360.5C 66.4288,360.346 64.7621,364.179 73.5,372C 85,378.167 93.8333,387 100,398.5C 103.822,407.477 108.155,416.143 113,424.5C 123.504,437.337 137.004,444.837 153.5,447C 166.56,447.831 179.56,447.331 192.5,445.5C 192.667,461.17 192.5,476.837 192,492.5C 189.661,498.596 185.161,501.596 178.5,501.5C 105.275,478.443 52.4418,432.11 20,362.5C 9.38505,337.368 2.55172,311.368 -0.5,284.5C -0.5,269.5 -0.5,254.5 -0.5,239.5C 11.331,146.185 58.9976,78.0183 142.5,35C 227.191,-2.35825 309.857,1.64175 390.5,47C 461.083,91.9695 501.417,156.136 511.5,239.5 Z"/></g>
</svg>
