<?xml version="1.0" encoding="UTF-8"?>
<!DOCTYPE svg PUBLIC "-//W3C//DTD SVG 1.1//EN" "http://www.w3.org/Graphics/SVG/1.1/DTD/svg11.dtd">
<svg xmlns="http://www.w3.org/2000/svg" version="1.1" width="96px" height="99px" style="shape-rendering:geometricPrecision; text-rendering:geometricPrecision; image-rendering:optimizeQuality; fill-rule:evenodd; clip-rule:evenodd" xmlns:xlink="http://www.w3.org/1999/xlink">
<g><path style="opacity:0.955" fill="#006fcf" d="M 32.5,6.5 C 42.1724,6.33353 51.8391,6.5002 61.5,7C 62.9308,7.46524 64.0975,8.29857 65,9.5C 65.6667,15.8333 65.6667,22.1667 65,28.5C 64.1667,29.3333 63.3333,30.1667 62.5,31C 58.5138,31.4988 54.5138,31.6655 50.5,31.5C 50.5,36.1667 50.5,40.8333 50.5,45.5C 59.9402,45.0545 69.2736,45.5545 78.5,47C 79,47.5 79.5,48 80,48.5C 80.4995,54.4908 80.6662,60.4908 80.5,66.5C 83.5,66.5 86.5,66.5 89.5,66.5C 89.5,74.8333 89.5,83.1667 89.5,91.5C 81.5,91.5 73.5,91.5 65.5,91.5C 65.5,83.1667 65.5,74.8333 65.5,66.5C 68.5,66.5 71.5,66.5 74.5,66.5C 74.5,61.8333 74.5,57.1667 74.5,52.5C 66.5,52.5 58.5,52.5 50.5,52.5C 50.5,57.1667 50.5,61.8333 50.5,66.5C 53.5,66.5 56.5,66.5 59.5,66.5C 59.5,74.8333 59.5,83.1667 59.5,91.5C 51.5,91.5 43.5,91.5 35.5,91.5C 35.5,83.1667 35.5,74.8333 35.5,66.5C 38.5,66.5 41.5,66.5 44.5,66.5C 44.5,61.8333 44.5,57.1667 44.5,52.5C 36.5,52.5 28.5,52.5 20.5,52.5C 20.5,57.1667 20.5,61.8333 20.5,66.5C 23.5,66.5 26.5,66.5 29.5,66.5C 29.5,74.8333 29.5,83.1667 29.5,91.5C 21.5,91.5 13.5,91.5 5.5,91.5C 5.5,83.1667 5.5,74.8333 5.5,66.5C 8.5,66.5 11.5,66.5 14.5,66.5C 14.3338,60.4908 14.5005,54.4908 15,48.5C 15.8333,47.6667 16.6667,46.8333 17.5,46C 26.4938,45.5002 35.4938,45.3336 44.5,45.5C 44.5,40.8333 44.5,36.1667 44.5,31.5C 40.8183,31.6653 37.1516,31.4986 33.5,31C 32.0692,30.5348 30.9025,29.7014 30,28.5C 29.3333,22.1667 29.3333,15.8333 30,9.5C 31.045,8.62656 31.8783,7.62656 32.5,6.5 Z"/></g>
</svg>
