<?xml version="1.0" encoding="UTF-8"?>
<!DOCTYPE svg PUBLIC "-//W3C//DTD SVG 1.1//EN" "http://www.w3.org/Graphics/SVG/1.1/DTD/svg11.dtd">
<svg xmlns="http://www.w3.org/2000/svg" version="1.1" width="96px" height="97px" style="shape-rendering:geometricPrecision; text-rendering:geometricPrecision; image-rendering:optimizeQuality; fill-rule:evenodd; clip-rule:evenodd" xmlns:xlink="http://www.w3.org/1999/xlink">
<g><path style="opacity:0.995" fill="#60c5ff" d="M 31.5,6.5 C 41.8387,6.33351 52.172,6.50017 62.5,7C 63.4162,7.37424 64.2496,7.87424 65,8.5C 65.9239,15.608 65.5906,22.608 64,29.5C 59.5986,30.4667 55.0986,30.8 50.5,30.5C 50.5,35.5 50.5,40.5 50.5,45.5C 60.2726,45.0525 69.9393,45.5525 79.5,47C 80.4777,53.4102 80.811,59.9102 80.5,66.5C 83.5,66.5 86.5,66.5 89.5,66.5C 89.5,74.5 89.5,82.5 89.5,90.5C 81.5,90.5 73.5,90.5 65.5,90.5C 65.5,82.5 65.5,74.5 65.5,66.5C 68.5,66.5 71.5,66.5 74.5,66.5C 74.5,61.5 74.5,56.5 74.5,51.5C 66.5,51.5 58.5,51.5 50.5,51.5C 50.5,56.5 50.5,61.5 50.5,66.5C 53.5,66.5 56.5,66.5 59.5,66.5C 59.5,74.5 59.5,82.5 59.5,90.5C 51.5,90.5 43.5,90.5 35.5,90.5C 35.5,82.5 35.5,74.5 35.5,66.5C 38.5,66.5 41.5,66.5 44.5,66.5C 44.5,61.5 44.5,56.5 44.5,51.5C 36.5,51.5 28.5,51.5 20.5,51.5C 20.5,56.5 20.5,61.5 20.5,66.5C 23.5,66.5 26.5,66.5 29.5,66.5C 29.5,74.5 29.5,82.5 29.5,90.5C 21.5,90.5 13.5,90.5 5.5,90.5C 5.5,82.5 5.5,74.5 5.5,66.5C 8.5,66.5 11.5,66.5 14.5,66.5C 14.3338,60.4908 14.5005,54.4908 15,48.5C 15.3742,47.5838 15.8742,46.7504 16.5,46C 25.8274,45.5002 35.1607,45.3335 44.5,45.5C 44.5,40.5 44.5,35.5 44.5,30.5C 40.4862,30.6655 36.4862,30.4988 32.5,30C 31.5838,29.6258 30.7504,29.1258 30,28.5C 29.3333,22.1667 29.3333,15.8333 30,9.5C 30.5133,8.47344 31.0133,7.47344 31.5,6.5 Z"/></g>
</svg>
