<?xml version="1.0" encoding="UTF-8"?>
<!DOCTYPE svg PUBLIC "-//W3C//DTD SVG 1.1//EN" "http://www.w3.org/Graphics/SVG/1.1/DTD/svg11.dtd">
<svg xmlns="http://www.w3.org/2000/svg" version="1.1" width="512px" height="512px" style="shape-rendering:geometricPrecision; text-rendering:geometricPrecision; image-rendering:optimizeQuality; fill-rule:evenodd; clip-rule:evenodd" xmlns:xlink="http://www.w3.org/1999/xlink">
<g><path style="opacity:0.96" fill="#333333" d="M 251.5,88.5 C 261.367,87.5111 268.201,91.5111 272,100.5C 272.667,109.5 272.667,118.5 272,127.5C 265.807,139.563 256.64,142.396 244.5,136C 242.044,133.592 240.211,130.759 239,127.5C 238.333,118.5 238.333,109.5 239,100.5C 241.208,94.3375 245.375,90.3375 251.5,88.5 Z"/></g>
<g><path style="opacity:0.953" fill="#323232" d="M 145.5,132.5 C 150.947,131.826 155.947,132.992 160.5,136C 167.458,141.951 173.291,148.785 178,156.5C 178.965,173.433 171.132,180.266 154.5,177C 147.738,172.242 141.571,166.742 136,160.5C 129.541,147.707 132.708,138.374 145.5,132.5 Z"/></g>
<g><path style="opacity:0.953" fill="#323232" d="M 356.5,132.5 C 372.316,131.482 379.483,138.815 378,154.5C 373.291,162.215 367.458,169.049 360.5,175C 347.802,181.547 338.635,178.38 333,165.5C 331.826,160.06 332.826,155.06 336,150.5C 342.138,143.517 348.971,137.517 356.5,132.5 Z"/></g>
<g><path style="opacity:0.975" fill="#323232" d="M 249.5,171.5 C 294.788,171.705 323.955,193.372 337,236.5C 343.516,271.625 333.016,300.458 305.5,323C 270.145,345.664 235.478,344.664 201.5,320C 173.022,292.92 165.189,260.753 178,223.5C 192.177,192.833 216.011,175.5 249.5,171.5 Z M 246.5,206.5 C 276.531,204.418 295.698,217.752 304,246.5C 306.564,276.554 293.397,295.72 264.5,304C 234.446,306.564 215.28,293.397 207,264.5C 204.619,234.409 217.786,215.075 246.5,206.5 Z"/></g>
<g><path style="opacity:0.963" fill="#323232" d="M 100.5,238.5 C 109.506,238.334 118.506,238.5 127.5,239C 139.563,245.193 142.396,254.36 136,266.5C 133.592,268.956 130.759,270.789 127.5,272C 118.5,272.667 109.5,272.667 100.5,272C 87.8148,265.267 85.3148,255.767 93,243.5C 95.4795,241.686 97.9795,240.019 100.5,238.5 Z"/></g>
<g><path style="opacity:0.964" fill="#323232" d="M 383.5,238.5 C 392.506,238.334 401.506,238.5 410.5,239C 423.185,245.733 425.685,255.233 418,267.5C 415.749,269.377 413.249,270.877 410.5,272C 401.5,272.667 392.5,272.667 383.5,272C 371.437,265.807 368.604,256.64 375,244.5C 377.637,242.109 380.47,240.109 383.5,238.5 Z"/></g>
<g><path style="opacity:0.954" fill="#323232" d="M 157.5,332.5 C 172.316,331.815 179.149,338.815 178,353.5C 177.275,355.949 176.275,358.283 175,360.5C 169.049,367.458 162.215,373.291 154.5,378C 138.667,379.5 131.5,372.333 133,356.5C 137.709,348.785 143.542,341.951 150.5,336C 152.925,334.787 155.259,333.621 157.5,332.5 Z"/></g>
<g><path style="opacity:0.951" fill="#323232" d="M 345.5,332.5 C 350.901,331.966 355.901,333.133 360.5,336C 365.333,340.833 370.167,345.667 375,350.5C 380.172,359.285 379.339,367.452 372.5,375C 365.138,379.598 357.804,379.598 350.5,375C 345.667,370.167 340.833,365.333 336,360.5C 329.541,347.707 332.708,338.374 345.5,332.5 Z"/></g>
<g><path style="opacity:0.962" fill="#323232" d="M 251.5,371.5 C 261.367,370.511 268.201,374.511 272,383.5C 272.667,392.5 272.667,401.5 272,410.5C 265.267,423.185 255.767,425.685 243.5,418C 241.623,415.749 240.123,413.249 239,410.5C 238.333,401.5 238.333,392.5 239,383.5C 241.111,377.219 245.278,373.219 251.5,371.5 Z"/></g>
</svg>
