<?xml version="1.0" encoding="UTF-8"?>
<!DOCTYPE svg PUBLIC "-//W3C//DTD SVG 1.1//EN" "http://www.w3.org/Graphics/SVG/1.1/DTD/svg11.dtd">
<svg xmlns="http://www.w3.org/2000/svg" version="1.1" width="512px" height="512px" style="shape-rendering:geometricPrecision; text-rendering:geometricPrecision; image-rendering:optimizeQuality; fill-rule:evenodd; clip-rule:evenodd" xmlns:xlink="http://www.w3.org/1999/xlink">
<g><path style="opacity:0.936" fill="#FFFFFF" d="M 252.5,33.5 C 263.231,33.0696 269.731,38.0696 272,48.5C 272.906,59.5591 272.573,70.5591 271,81.5C 268.217,88.4773 263.051,91.8107 255.5,91.5C 246.186,91.3539 240.686,86.6872 239,77.5C 238.094,66.4409 238.427,55.4409 240,44.5C 242.513,38.8127 246.68,35.146 252.5,33.5 Z"/></g>
<g><path style="opacity:0.948" fill="#FFFFFF" d="M 106.5,93.5 C 111.046,93.2681 115.379,94.1015 119.5,96C 128.402,104.232 136.569,113.066 144,122.5C 145.069,141.39 136.569,147.89 118.5,142C 111,134.5 103.5,127 96,119.5C 91.0279,107.226 94.5279,98.5591 106.5,93.5 Z"/></g>
<g><path style="opacity:0.949" fill="#FFFFFF" d="M 399.5,93.5 C 415.396,96.6285 420.23,105.628 414,120.5C 406.833,127.667 399.667,134.833 392.5,142C 375.249,147.739 366.749,141.572 367,123.5C 367.471,121.754 368.138,120.087 369,118.5C 376.167,111.333 383.333,104.167 390.5,97C 393.459,95.3957 396.459,94.2291 399.5,93.5 Z"/></g>
<g><path style="opacity:0.98" fill="#FFFFFF" d="M 253.5,108.5 C 316.679,110.817 362.179,140.15 390,196.5C 411.805,253.209 403.805,305.209 366,352.5C 317.736,401.489 261.236,413.989 196.5,390C 140.024,363.272 111.024,318.439 109.5,255.5C 111.024,192.561 140.024,147.728 196.5,121C 215.001,113.936 234.001,109.769 253.5,108.5 Z M 237.5,161.5 C 249.738,160.081 256.738,165.414 258.5,177.5C 248.141,203.552 253.141,226.052 273.5,245C 291.592,257.926 310.925,259.926 331.5,251C 345.348,251.523 351.182,258.69 349,272.5C 337.136,321.368 306.136,347.368 256,350.5C 209.5,348.303 178.833,325.303 164,281.5C 154.033,236.297 167.866,200.464 205.5,174C 215.732,168.371 226.399,164.204 237.5,161.5 Z"/></g>
<g><path style="opacity:0.962" fill="#FFFFFF" d="M 222.5,205.5 C 225.025,233.045 237.359,255.211 259.5,272C 273.628,280.542 288.962,285.375 305.5,286.5C 290.583,308.427 269.916,317.26 243.5,313C 209.415,302.351 194.248,279.185 198,243.5C 201.397,227.693 209.564,215.026 222.5,205.5 Z"/></g>
<g><path style="opacity:0.938" fill="#FFFFFF" d="M 47.5,238.5 C 57.5056,238.334 67.5056,238.5 77.5,239C 86.4903,240.825 91.4903,246.325 92.5,255.5C 91.4903,264.675 86.4903,270.175 77.5,272C 67.8333,272.667 58.1667,272.667 48.5,272C 37.5088,269.657 32.6755,262.824 34,251.5C 36.3184,244.782 40.8184,240.448 47.5,238.5 Z"/></g>
<g><path style="opacity:0.938" fill="#FFFFFF" d="M 433.5,238.5 C 443.506,238.334 453.506,238.5 463.5,239C 476.376,243.263 480.209,251.763 475,264.5C 472.089,269.075 467.922,271.575 462.5,272C 452.833,272.667 443.167,272.667 433.5,272C 421.688,268.874 417.188,261.374 420,249.5C 422.616,243.372 427.116,239.706 433.5,238.5 Z"/></g>
<g><path style="opacity:0.95" fill="#FFFFFF" d="M 123.5,366.5 C 140.153,366.315 146.653,374.315 143,390.5C 135.865,398.636 128.365,406.47 120.5,414C 106.223,420.195 97.2227,415.695 93.5,400.5C 94.1058,396.972 95.2725,393.639 97,390.5C 105.156,381.499 113.989,373.499 123.5,366.5 Z"/></g>
<g><path style="opacity:0.948" fill="#FFFFFF" d="M 377.5,366.5 C 382.777,365.931 387.777,366.765 392.5,369C 400,376.5 407.5,384 415,391.5C 420.064,403.658 416.564,412.158 404.5,417C 400.764,417.61 397.097,417.277 393.5,416C 383.63,407.797 374.797,398.631 367,388.5C 364.508,378.08 368.008,370.747 377.5,366.5 Z"/></g>
<g><path style="opacity:0.938" fill="#FFFFFF" d="M 249.5,419.5 C 261.515,417.244 269.015,421.911 272,433.5C 272.906,444.559 272.573,455.559 271,466.5C 264.991,477.461 256.491,479.961 245.5,474C 241.908,470.984 239.742,467.151 239,462.5C 238.333,452.833 238.333,443.167 239,433.5C 240.085,426.928 243.585,422.261 249.5,419.5 Z"/></g>
</svg>
