<?xml version="1.0" encoding="UTF-8"?>
<!DOCTYPE svg PUBLIC "-//W3C//DTD SVG 1.1//EN" "http://www.w3.org/Graphics/SVG/1.1/DTD/svg11.dtd">
<svg xmlns="http://www.w3.org/2000/svg" version="1.1" width="512px" height="512px" style="shape-rendering:geometricPrecision; text-rendering:geometricPrecision; image-rendering:optimizeQuality; fill-rule:evenodd; clip-rule:evenodd" xmlns:xlink="http://www.w3.org/1999/xlink">
<g><path style="opacity:0.99" fill="#35c6ff" d="M 179.5,-0.5 C 185.833,-0.5 192.167,-0.5 198.5,-0.5C 220.855,5.02151 234.688,19.0215 240,41.5C 240.5,62.164 240.667,82.8306 240.5,103.5C 218.455,103.945 196.455,103.445 174.5,102C 154.326,95.184 141.826,81.3506 137,60.5C 134.436,28.2421 148.602,7.90873 179.5,-0.5 Z"/></g>
<g><path style="opacity:0.992" fill="#0dc46d" d="M 313.5,-0.5 C 320.5,-0.5 327.5,-0.5 334.5,-0.5C 356.719,5.21783 370.885,19.2178 377,41.5C 378.623,90.8106 378.957,140.144 378,189.5C 375.327,216.507 360.827,233.341 334.5,240C 311.478,243.398 292.978,235.898 279,217.5C 275.22,211.274 272.553,204.607 271,197.5C 270.333,145.833 270.333,94.1667 271,42.5C 276.681,19.6524 290.848,5.31911 313.5,-0.5 Z"/></g>
<g><path style="opacity:0.99" fill="#35c6ff" d="M -0.5,197.5 C -0.5,190.5 -0.5,183.5 -0.5,176.5C 5.24449,154.255 19.2445,140.088 41.5,134C 90.8106,132.377 140.144,132.043 189.5,133C 216.507,135.673 233.341,150.173 240,176.5C 243.398,199.522 235.898,218.022 217.5,232C 211.274,235.78 204.607,238.447 197.5,240C 145.833,240.667 94.1667,240.667 42.5,240C 19.6524,234.319 5.31911,220.152 -0.5,197.5 Z"/></g>
<g><path style="opacity:0.993" fill="#0dc46d" d="M 511.5,179.5 C 511.5,185.833 511.5,192.167 511.5,198.5C 505.978,220.855 491.978,234.688 469.5,240C 448.836,240.5 428.169,240.667 407.5,240.5C 407.055,218.455 407.555,196.455 409,174.5C 418.926,147.276 438.426,134.776 467.5,137C 491.564,141.565 506.23,155.732 511.5,179.5 Z"/></g>
<g><path style="opacity:0.989" fill="#ff433f" d="M -0.5,331.5 C -0.5,325.167 -0.5,318.833 -0.5,312.5C 5.02151,290.145 19.0215,276.312 41.5,271C 62.164,270.5 82.8306,270.333 103.5,270.5C 103.945,292.545 103.445,314.545 102,336.5C 91.0331,366.075 69.8664,378.242 38.5,373C 17.6714,366.5 4.67144,352.667 -0.5,331.5 Z"/></g>
<g><path style="opacity:0.99" fill="#ff4340" d="M 197.5,511.5 C 190.5,511.5 183.5,511.5 176.5,511.5C 154.255,505.756 140.088,491.756 134,469.5C 132.377,420.189 132.043,370.856 133,321.5C 135.644,294.518 150.144,277.685 176.5,271C 209.746,267.359 230.913,281.526 240,313.5C 240.667,365.167 240.667,416.833 240,468.5C 234.319,491.348 220.152,505.681 197.5,511.5 Z"/></g>
<g><path style="opacity:0.989" fill="#fdcb01" d="M 511.5,313.5 C 511.5,320.5 511.5,327.5 511.5,334.5C 505.782,356.719 491.782,370.885 469.5,377C 420.189,378.623 370.856,378.957 321.5,378C 294.518,375.356 277.685,360.856 271,334.5C 267.359,301.254 281.526,280.087 313.5,271C 365.167,270.333 416.833,270.333 468.5,271C 491.348,276.681 505.681,290.848 511.5,313.5 Z"/></g>
<g><path style="opacity:0.987" fill="#fdcb01" d="M 331.5,511.5 C 325.5,511.5 319.5,511.5 313.5,511.5C 290.595,506.428 276.428,492.428 271,469.5C 270.5,448.836 270.333,428.169 270.5,407.5C 292.545,407.055 314.545,407.555 336.5,409C 364.407,418.944 376.907,438.777 374,468.5C 368.982,492.017 354.816,506.35 331.5,511.5 Z"/></g>
</svg>
